<svg xmlns="http://www.w3.org/2000/svg" width="127.552" height="92.99" viewBox="0 0 127.552 92.99">
  <g id="Logo2_MSoL-13" data-name="Logo2 MSoL-13" transform="translate(63.776 46.495)">
    <g id="Logo2_MSoL-13-2" data-name="Logo2 MSoL-13" transform="translate(-63.776 -46.495)">
      <path id="Path_198" data-name="Path 198" d="M222.025,247.556h.367a15.649,15.649,0,0,0,.939,3.3,9.679,9.679,0,0,0,1.272,2.2,5.866,5.866,0,0,0,1.467,1.342,6.1,6.1,0,0,0,1.533.689,7,7,0,0,0,1.467.253c.473.022.92.037,1.338.037a6.207,6.207,0,0,0,2.871-.583,5.035,5.035,0,0,0,1.782-1.466,5.448,5.448,0,0,0,.924-1.921,7.734,7.734,0,0,0,.264-1.9,5.042,5.042,0,0,0-.429-2.174,5.163,5.163,0,0,0-1.1-1.54,5.974,5.974,0,0,0-1.437-1.034,9,9,0,0,0-1.467-.616l-3.795-1.269a9.465,9.465,0,0,1-4.033-2.394,5.706,5.706,0,0,1-1.368-3.985,8.491,8.491,0,0,1,.528-3.028,7.128,7.128,0,0,1,1.467-2.409,6.817,6.817,0,0,1,2.291-1.595,7.96,7.96,0,0,1,4.851-.367,8.1,8.1,0,0,1,1.338.488l1.012.506a2.084,2.084,0,0,0,.909.216.9.9,0,0,0,.576-.128c.1-.084.154-1.206.33-1.544h.546V236.1h-.4a11.617,11.617,0,0,0-.678-2.519,7.908,7.908,0,0,0-1.236-2.141,5.866,5.866,0,0,0-1.833-1.485,5.29,5.29,0,0,0-2.489-.561,7.333,7.333,0,0,0-1.749.235,5.3,5.3,0,0,0-1.782.814,4.473,4.473,0,0,0-1.914,3.916,4.2,4.2,0,0,0,.429,1.976,4.48,4.48,0,0,0,1.1,1.379,6.648,6.648,0,0,0,1.518.942q.84.367,1.7.671l3.993,1.375q.627.22,1.584.583a7,7,0,0,1,1.862,1.1,6.158,6.158,0,0,1,1.551,1.921,6.4,6.4,0,0,1,.645,3.047,9.165,9.165,0,0,1-.579,3.245,8.066,8.066,0,0,1-4.3,4.6,8.314,8.314,0,0,1-3.5.708c-.462,0-.869,0-1.221-.018a7.449,7.449,0,0,1-.99-.092c-.308-.048-.616-.1-.924-.161a9.38,9.38,0,0,1-1.023-.271c-.44-.147-.913-.315-1.419-.51a3.851,3.851,0,0,0-1.32-.29.851.851,0,0,0-.678.22,14.737,14.737,0,0,0-.257,1.507h-.55Z" transform="translate(-222.01 -200.835)" fill="#231f20"/>
      <path id="Path_199" data-name="Path 199" d="M329.394,229.15h10.632v.528H336.36v18.115a17.811,17.811,0,0,0,.348,3.806,6.728,6.728,0,0,0,1.038,2.511,3.9,3.9,0,0,0,1.716,1.371,6.232,6.232,0,0,0,2.343.411,8.14,8.14,0,0,0,3.267-.616,5.632,5.632,0,0,0,2.442-2.2,8.719,8.719,0,0,0,.579-.975,6.036,6.036,0,0,0,.429-1.144,9.974,9.974,0,0,0,.279-1.573,21.763,21.763,0,0,0,.1-2.269V229.678h-3.666v-.528h7.82v.528h-3.666v18.185a12.837,12.837,0,0,1-.3,2.871,8.193,8.193,0,0,1-1.221,2.68,6.428,6.428,0,0,1-2.475,2.174,9.126,9.126,0,0,1-4.191.829,7.963,7.963,0,0,1-6.053-2.2q-2.094-2.2-2.094-6.79V229.678H329.39Z" transform="translate(-290.021 -201.165)" fill="#231f20"/>
      <path id="Path_200" data-name="Path 200" d="M398.321,255.032h3.666V229.455h-3.666v-.524h6.27c.264,0,.528,0,.792-.018s.528-.033.792-.059.528,0,.792-.018.528,0,.792,0a21.56,21.56,0,0,1,3.432.242,5.445,5.445,0,0,1,2.772,1.4,5.706,5.706,0,0,1,1.635,2.28,6.808,6.808,0,0,1,.477,2.394,7.414,7.414,0,0,1-.18,1.441,5.131,5.131,0,0,1-.792,1.793,6.156,6.156,0,0,1-1.767,1.683,7.3,7.3,0,0,1-3.069,1.03v.073c.366.051.832.143,1.437.282a7.766,7.766,0,0,1,1.833.689,6.9,6.9,0,0,1,1.731,1.291,4.5,4.5,0,0,1,1.122,2.075,10.1,10.1,0,0,1,.282,1.7c.055.638.1,1.291.132,1.965s.066,1.32.1,1.943a10.761,10.761,0,0,0,.18,1.573,6.272,6.272,0,0,0,.627,1.756,1.467,1.467,0,0,0,1.386.785,2.368,2.368,0,0,0,.891-.187,2.2,2.2,0,0,0,.825-.6l.3.411c-.11.1-.235.205-.367.319a2.763,2.763,0,0,1-.546.315,3.51,3.51,0,0,1-.807.246,6.269,6.269,0,0,1-1.173.092,5.591,5.591,0,0,1-2.2-.367,3.3,3.3,0,0,1-1.4-1.1,4.891,4.891,0,0,1-.774-1.793,16.032,16.032,0,0,1-.348-2.486l-.231-3.406a7.817,7.817,0,0,0-.66-2.915,3.963,3.963,0,0,0-1.236-1.533,3.275,3.275,0,0,0-1.467-.579,11.024,11.024,0,0,0-1.32-.1h-3.3v13.47h3.666v.524H398.31Zm6.966-14.024h3.036a5.2,5.2,0,0,0,1.683-.26,2.934,2.934,0,0,0,1.305-.917,4.589,4.589,0,0,0,.84-1.778,11.343,11.343,0,0,0,.3-2.841,9.014,9.014,0,0,0-.444-3.12,4.213,4.213,0,0,0-1.155-1.778,3.582,3.582,0,0,0-1.584-.785,8.283,8.283,0,0,0-1.734-.187c-.4,0-.8,0-1.2.018a7.618,7.618,0,0,0-1.041.1Z" transform="translate(-333.672 -200.961)" fill="#231f20"/>
      <path id="Path_201" data-name="Path 201" d="M474.976,255.254h-.495a3.3,3.3,0,0,0-.528-.532,1.467,1.467,0,0,0-.924-.238,3.347,3.347,0,0,0-1.074.2l-1.32.458a15.521,15.521,0,0,1-1.664.458,9.769,9.769,0,0,1-2.046.2,10.174,10.174,0,0,1-4.033-.843,10.957,10.957,0,0,1-3.71-2.746,15.927,15.927,0,0,1-2.706-4.246,13.84,13.84,0,0,1-1.1-5.672,15.4,15.4,0,0,1,.891-5.232,14.388,14.388,0,0,1,2.475-4.4,12.052,12.052,0,0,1,3.729-3.017,10,10,0,0,1,4.686-1.1,6.8,6.8,0,0,1,1.815.22,10.635,10.635,0,0,1,1.419.495q.627.275,1.155.495a2.649,2.649,0,0,0,1.023.22,1.467,1.467,0,0,0,.939-.238,3.711,3.711,0,0,0,.513-.532h.495v7.333h-.367a24.151,24.151,0,0,0-.759-2.742,8.012,8.012,0,0,0-1.287-2.4,6.137,6.137,0,0,0-2.1-1.683,6.922,6.922,0,0,0-3.149-.642,6.852,6.852,0,0,0-3,.6,6.371,6.371,0,0,0-2.112,1.609,7.971,7.971,0,0,0-1.371,2.343,15.462,15.462,0,0,0-.77,2.779,24.834,24.834,0,0,0-.348,3q-.081,1.518-.081,2.871a30.08,30.08,0,0,0,.561,6.368,11.439,11.439,0,0,0,1.565,3.989,5.5,5.5,0,0,0,2.427,2.049,8.1,8.1,0,0,0,3.135.587,7.79,7.79,0,0,0,3.564-.7,6.13,6.13,0,0,0,2.178-1.811,8.232,8.232,0,0,0,1.254-2.526q.429-1.408.759-2.8h.367Z" transform="translate(-369.814 -200.783)" fill="#231f20"/>
      <path id="Path_202" data-name="Path 202" d="M515.025,255.044h3.666V229.328h-3.666V228.8H533.9v6.5h-.367a20.418,20.418,0,0,0-.924-2.566,7.112,7.112,0,0,0-1.188-1.881,4.343,4.343,0,0,0-1.65-1.148,6.356,6.356,0,0,0-2.31-.367h-5.488v11.615h2.145a6.567,6.567,0,0,0,1.833-.224,2.754,2.754,0,0,0,1.305-.847,5.19,5.19,0,0,0,.924-1.69,22.952,22.952,0,0,0,.733-2.764h.367v11.692h-.367c-.154-.733-.312-1.43-.477-2.1a7,7,0,0,0-.693-1.8,3.505,3.505,0,0,0-1.188-1.261,3.583,3.583,0,0,0-1.932-.469h-2.651v13.566h6.233a4.989,4.989,0,0,0,3.021-.884,7.53,7.53,0,0,0,1.961-2.1,9.682,9.682,0,0,0,1.122-2.541,14.856,14.856,0,0,0,.462-2.178h.367v8.231H515.01Z" transform="translate(-407.586 -200.943)" fill="#231f20"/>
      <path id="Path_203" data-name="Path 203" d="M269.024,247.858a14.454,14.454,0,0,1-1.258-5.47,15.532,15.532,0,0,1,.689-5.1,12.623,12.623,0,0,1,2.2-4.154,8.869,8.869,0,0,1,3.325-2.614,9.209,9.209,0,0,1,4.308-.733A12.314,12.314,0,0,1,282.831,231a14.635,14.635,0,0,1,4.136,2.988,15.229,15.229,0,0,1,3.1,4.667,15.582,15.582,0,0,1,.77,10.071,12.751,12.751,0,0,1-2.09,4.33,9.016,9.016,0,0,1-3.666,2.9,9.434,9.434,0,0,1-4.664.781,12.026,12.026,0,0,1-4.572-1.357,14.4,14.4,0,0,1-3.963-3.1A15.977,15.977,0,0,1,269.024,247.858Zm3.476-1.521a38.136,38.136,0,0,0,2.709,5.2,12.723,12.723,0,0,0,2.878,3.3,6.233,6.233,0,0,0,3.179,1.335,5.875,5.875,0,0,0,6.574-2.893,6.166,6.166,0,0,0,1.192-3.245,12.763,12.763,0,0,0-.462-4.352,37.949,37.949,0,0,0-1.98-5.5,40.523,40.523,0,0,0-2.266-4.436,14.883,14.883,0,0,0-2.761-3.468,7.388,7.388,0,0,0-3.347-1.808,6.663,6.663,0,0,0-4.227.121,6.529,6.529,0,0,0-2.933,3.01,7.425,7.425,0,0,0-.946,3.688,14.9,14.9,0,0,0,.671,4.374,40.893,40.893,0,0,0,1.72,4.689Z" transform="translate(-250.985 -201.555)" fill="#231f20"/>
      <path id="Path_204" data-name="Path 204" d="M399.291,153.223a1.342,1.342,0,0,0-1.1-.4,2.365,2.365,0,0,0-1.1.246,3.259,3.259,0,0,0-.843.627,4.5,4.5,0,0,0-.642.876c-.187.33-.367.66-.546.99l-5.049,9.107h-.066c.154-.7.315-1.577.48-2.625a24.367,24.367,0,0,0,.246-3.743,9.581,9.581,0,0,0-.18-1.782,6.788,6.788,0,0,0-.594-1.782,3.9,3.9,0,0,0-1.122-1.371,2.82,2.82,0,0,0-1.767-.543,2.273,2.273,0,0,0-1.467.462,3.931,3.931,0,0,0-.957,1.122,5.868,5.868,0,0,0-.579,1.386c-.132.484-5.133,14.379-5.214,14.731a13.81,13.81,0,0,1-.495,1.36,11.221,11.221,0,0,1-.693,1.518,5.653,5.653,0,0,1-.891,1.236,1.485,1.485,0,0,1-1.1.517.667.667,0,0,1-.693-.491,2.96,2.96,0,0,1-.165-.95,10.634,10.634,0,0,1,.165-1.753c.11-.649.231-1.269.367-1.833l2.145-9.533q.264-1.181.447-2.031a8.23,8.23,0,0,0,.18-1.723,4.861,4.861,0,0,0-.807-2.856,2.541,2.541,0,0,0-2.2-1.159,2.7,2.7,0,0,0-1.65.642,8.8,8.8,0,0,0-1.532,1.569A15.292,15.292,0,0,0,370.6,157q-.561,1.03-.891,1.8h-.048a12.372,12.372,0,0,0,.165-1.954,5.572,5.572,0,0,0-.675-2.856,2.126,2.126,0,0,0-1.932-1.159,2.874,2.874,0,0,0-1.716.642,9.555,9.555,0,0,0-1.617,1.569,14.128,14.128,0,0,0-1.368,2.009q-.612,1.078-1.008,1.954h-.066l1.254-5.866h-5.232l-.132.733h3l-4.766,21.353h2.277l2.475-10.753a27.86,27.86,0,0,1,1.5-4.766,20.609,20.609,0,0,1,1.8-3.4,9.194,9.194,0,0,1,1.8-2.057,2.6,2.6,0,0,1,1.467-.7.828.828,0,0,1,.825.568,4.006,4.006,0,0,1,.231,1.492,17.157,17.157,0,0,1-.462,2.984l-3.861,16.62h2.31l2.475-10.753a29.991,29.991,0,0,1,1.32-4.194,25.871,25.871,0,0,1,1.668-3.472,11.7,11.7,0,0,1,1.749-2.368,2.426,2.426,0,0,1,1.566-.876,1.038,1.038,0,0,1,1.023.517,3.065,3.065,0,0,1,.264,1.39,10.192,10.192,0,0,1-.264,2.057l-2.772,12.29a12.261,12.261,0,0,0-.33,1.646,12.123,12.123,0,0,0-.066,1.287,3.218,3.218,0,0,0,.733,2.368,2.566,2.566,0,0,0,3.432.128,5.5,5.5,0,0,0,1.173-1.415,9.768,9.768,0,0,0,.774-1.672q.3-.851.462-1.364c.066-.286,5.133-14.251,5.265-14.691a7.886,7.886,0,0,1,.477-1.287,4.006,4.006,0,0,1,.733-1.074,1.371,1.371,0,0,1,1.023-.444.752.752,0,0,1,.561.312,3.218,3.218,0,0,1,.48,1.221,18.078,18.078,0,0,1,.345,2.526q.132,1.617.132,4.191a24.725,24.725,0,0,1-1.929,9.533,12.625,12.625,0,0,1-1.833,3.12,2.722,2.722,0,0,1-1.932,1.188,1.324,1.324,0,0,1-.807-.231.711.711,0,0,1-.315-.594,2.044,2.044,0,0,1,.051-.513,2.328,2.328,0,0,1,.114-.33c.044-.1.084-.2.117-.3a1.5,1.5,0,0,0,.048-.444.734.734,0,0,0-.264-.612,1.063,1.063,0,0,0-.693-.213,2.1,2.1,0,0,0-1.056.279,1.2,1.2,0,0,0-.495,1.14,2.006,2.006,0,0,0,.766,1.65,3.182,3.182,0,0,0,2.027.612,3,3,0,0,0,1.584-.462A6.7,6.7,0,0,0,385,174.143a11.673,11.673,0,0,0,1.305-1.749q.612-.99,1.17-2.046l1.914-3.564L395.4,155.9a12.713,12.713,0,0,1,1.188-1.833,1.39,1.39,0,0,1,.858-.576q.462-.066.462.429a.634.634,0,0,1-.18.477.734.734,0,0,0-.183.546q0,.594.627.594a1.426,1.426,0,0,0,1.056-.4,1.466,1.466,0,0,0,.084-1.914Z" transform="translate(-306.602 -152.82)" fill="#231f20"/>
      <path id="Path_205" data-name="Path 205" d="M336.724,339.36h3.666V313.468h-3.666v-.528h10.632v.528H343.69V339.36h5.866a5.489,5.489,0,0,0,4.554-2.083,13.567,13.567,0,0,0,2.409-5.683h.367v8.293H336.72Z" transform="translate(-294.663 -254.234)" fill="#231f20"/>
      <path id="Path_206" data-name="Path 206" d="M392.983,330.754a14.3,14.3,0,0,1-1.258-5.467,15.534,15.534,0,0,1,.686-5.1,12.523,12.523,0,0,1,2.2-4.154,8.8,8.8,0,0,1,3.322-2.614,9.225,9.225,0,0,1,4.312-.733,12.315,12.315,0,0,1,4.543,1.206,14.637,14.637,0,0,1,4.136,2.988,15.556,15.556,0,0,1,3.868,14.731,12.634,12.634,0,0,1-2.086,4.326,8.957,8.957,0,0,1-3.652,2.915,9.41,9.41,0,0,1-4.667.777,11.974,11.974,0,0,1-4.572-1.353,14.6,14.6,0,0,1-3.96-3.1A15.926,15.926,0,0,1,392.983,330.754Zm3.476-1.518a37.735,37.735,0,0,0,2.695,5.206,12.793,12.793,0,0,0,2.882,3.3,6.233,6.233,0,0,0,3.175,1.335,7.332,7.332,0,0,0,3.784-.326,7.246,7.246,0,0,0,2.794-2.566,6.166,6.166,0,0,0,1.192-3.245,12.94,12.94,0,0,0-.462-4.352,37.56,37.56,0,0,0-1.984-5.5,39.586,39.586,0,0,0-2.266-4.436,14.87,14.87,0,0,0-2.757-3.468,7.461,7.461,0,0,0-3.351-1.811,6.68,6.68,0,0,0-4.224.125,6.548,6.548,0,0,0-2.933,3.01,7.462,7.462,0,0,0-.942,3.688,15.031,15.031,0,0,0,.693,4.374,41.45,41.45,0,0,0,1.7,4.674Z" transform="translate(-329.497 -254.061)" fill="#231f20"/>
      <path id="Path_207" data-name="Path 207" d="M444.82,312.86h10.2v.521H451.35l7.333,21.533,7.226-21.533h-3.6v-.521h7.138v.521h-2.97L457.6,339.848h-.84l-8.975-26.467h-2.97Z" transform="translate(-363.13 -254.184)" fill="#231f20"/>
      <path id="Path_208" data-name="Path 208" d="M248.543,349.4a10.412,10.412,0,0,1,2.094-2.988,10.041,10.041,0,0,1,2.823-1.98,6.992,6.992,0,0,1,2.97-.733,4.582,4.582,0,0,1,2.244.528,5.022,5.022,0,0,1,1.584,1.353,5.74,5.74,0,0,1,.924,1.815,6.646,6.646,0,0,1,.3,1.914,8.226,8.226,0,0,1-.825,3.615,11.409,11.409,0,0,1-2.079,2.984,9.965,9.965,0,0,1-2.79,2.031,6.7,6.7,0,0,1-2.933.733,4.767,4.767,0,0,1-2.13-.462,5.224,5.224,0,0,1-2.654-2.984,6.148,6.148,0,0,1-.367-2.13,8.518,8.518,0,0,1,.843-3.7Zm2.16,8.066a2.787,2.787,0,0,0,2.06.807,3.4,3.4,0,0,0,1.918-.594,6.643,6.643,0,0,0,1.617-1.565,13.121,13.121,0,0,0,1.287-2.163,19.357,19.357,0,0,0,.939-2.376,18.82,18.82,0,0,0,.579-2.244,9.73,9.73,0,0,0,.2-1.716,4.161,4.161,0,0,0-.678-2.508,2.737,2.737,0,0,0-2.357-.924,3.251,3.251,0,0,0-1.815.561,6.493,6.493,0,0,0-1.569,1.467,11.447,11.447,0,0,0-1.269,2.06,16.858,16.858,0,0,0-.942,2.361,18.143,18.143,0,0,0-.576,2.343,11.82,11.82,0,0,0-.2,1.995,3.41,3.41,0,0,0,.814,2.482Z" transform="translate(-238.281 -273.714)" fill="#231f20"/>
      <path id="Path_209" data-name="Path 209" d="M284.479,324.2a15.032,15.032,0,0,1,1.485-3.564,14.3,14.3,0,0,1,2.178-2.885,9.983,9.983,0,0,1,2.64-1.947,6.3,6.3,0,0,1,2.834-.711,3.777,3.777,0,0,1,1.466.249,3.178,3.178,0,0,1,.99.627,2.4,2.4,0,0,1,.579.825,2.222,2.222,0,0,1,.18.84,2.28,2.28,0,0,1-.312,1.122,1.224,1.224,0,0,1-1.173.561,1.539,1.539,0,0,1-1.038-.279.851.851,0,0,1-.315-.645,1.2,1.2,0,0,1,.132-.576,4.682,4.682,0,0,1,.282-.462c.1-.143.187-.282.264-.414a.9.9,0,0,0,.114-.462.733.733,0,0,0-.367-.733,2.012,2.012,0,0,0-.876-.183,3.978,3.978,0,0,0-2.607.924,8.839,8.839,0,0,0-1.914,2.2,14.853,14.853,0,0,0-1.287,2.625q-.495,1.338-.733,2.2l-.719,2.5h4.07l-.132.462h-4.059l-2.933,11.186a29,29,0,0,1-1.419,4.092,18.233,18.233,0,0,1-1.962,3.5,10.3,10.3,0,0,1-2.409,2.427,4.737,4.737,0,0,1-2.757.906,4.494,4.494,0,0,1-.906-.1,2.657,2.657,0,0,1-.876-.345,2.138,2.138,0,0,1-.66-.66,1.969,1.969,0,0,1-.264-1.074,1.664,1.664,0,0,1,.367-1.1,1.422,1.422,0,0,1,1.17-.462,1.275,1.275,0,0,1,.693.165c.18.11.264.341.264.693a1.8,1.8,0,0,1-.165.733,2.144,2.144,0,0,0-.165.84.733.733,0,0,0,.282.627,1.2,1.2,0,0,0,.708.2q1.386,0,2.658-1.9a21.881,21.881,0,0,0,2.424-6.123l3.63-13.628h-3.135l.132-.462h3.135Z" transform="translate(-253.656 -255.6)" fill="#231f20"/>
      <path id="Path_210" data-name="Path 210" d="M505.276,313.4v25.917H501.61v.532h20.128v-8.293h-.367a15.037,15.037,0,0,1-.462,2.2,9.75,9.75,0,0,1-1.122,2.566,7.561,7.561,0,0,1-1.965,2.123,4.935,4.935,0,0,1-3.017.891h-6.233V325.64h2.673a3.278,3.278,0,0,1,3.116,1.745,7.164,7.164,0,0,1,.693,1.833q.249,1.023.48,2.123h.367v-11.8h-.367a23.364,23.364,0,0,1-.733,2.786,5.235,5.235,0,0,1-.924,1.7,2.757,2.757,0,0,1-1.3.854,6.547,6.547,0,0,1-1.833.227H508.6V313.4h5.477a6.267,6.267,0,0,1,2.31.367,4.322,4.322,0,0,1,1.65,1.155,7.207,7.207,0,0,1,1.188,1.9,20.6,20.6,0,0,1,.924,2.6h.367V312.87H505.276" transform="translate(-399.099 -254.19)" fill="#231f20"/>
    </g>
  </g>
</svg>
